<?xml version="1.0" encoding="utf-8"?>
<!-- Generator: Adobe Illustrator 25.0.0, SVG Export Plug-In . SVG Version: 6.00 Build 0)  -->
<svg version="1.1" id="Layer_1" xmlns="http://www.w3.org/2000/svg" xmlns:xlink="http://www.w3.org/1999/xlink" x="0px" y="0px"
	 viewBox="0 0 817.3 633" style="enable-background:new 0 0 817.3 633;" xml:space="preserve">
<style type="text/css">
	.st0{fill:#01A85A;}
</style>
<g>
	<path d="M816.1,423.2c-5.4,7.2-10.6,14.5-16.1,21.6c-11.7,14.8-24.4,28.7-38.4,41.5c-13,11.8-26.8,22.6-41.8,31.8
		c-16.5,10.2-33.9,18.5-52.4,24.3c-12.2,3.8-24.6,6.7-37.3,8.2c-12.9,1.5-25.9,2-38.9,1.2c-14.5-0.8-28.7-3.2-42.7-6.7
		c-14.8-3.8-29-9.1-42.7-15.8c-18.2-9-35.2-19.7-50.8-32.7c-19.3-16-36-34.2-50.1-54.8c-12.4-18.1-23.1-37-31.8-57.2
		c-7.8-18.1-14-36.7-18.3-55.9c-1.9-8.5-3.3-17.2-4.9-25.8c-2.1-11.6-3.2-23.3-3.7-35.1c-0.5-12.6-0.2-25.3-0.3-37.9
		c-0.1-12.6,1.3-25,2.6-37.5c1.3-12,3.2-24,4.8-35.9c0.4-2.9,0.8-5.8,1.2-8.9c-0.4,0.3-0.7,0.3-0.8,0.5c-9.2,19-16.8,38.6-22.5,59
		c-5.8,20.8-9.4,42-10.7,63.5c-1.2,21.2-0.6,42.4,2.1,63.5c1,7.8,2.1,15.6,3.2,23.4c0.1,0.9,0.7,2-0.9,2.8c-0.6-0.8-1.4-1.5-2-2.4
		c-2.9-4-5.7-8.2-8.8-12.1c-9.2-12.2-20-22.9-31.7-32.7c-7.4-6.2-15.2-11.9-23.4-17c-2.4-1.5-3.3-3.3-3-6c0.6-5.4,0.8-10.8,1.4-16.2
		c1.1-9.4,2.2-18.7,3.8-28c1.5-8.7,3.5-17.4,5.4-26c2.6-11.9,6-23.6,9.8-35.2c4.7-13.9,9.9-27.5,16.2-40.8
		c11.5-24.3,25.5-47,42.9-67.5c16.7-19.7,35.4-37,57.5-50.6c10.1-6.2,20.6-11.7,31.7-16c2.6-1,5.2-2,8.1-3.1
		c-29.4-0.3-58.3-0.6-87.1-0.9c-19.8-0.2-39.5-0.4-59.3-0.7c-13.5-0.2-27.1-0.4-40.6-0.6c-14.7-0.2-29.3-0.3-44-0.4
		c-6.1,0-5.8-0.4-5.8,5.8c0.2,32,0.5,63.9,0.6,95.9c0.1,29.1,0.1,58.2,0.3,87.2c0.1,23.5,0.3,47.1,0.4,70.6c0,1.5-0.2,3-0.4,4.7
		c-1.7-0.2-3.1-0.1-4.3-0.5c-12.8-3.2-25.8-2.3-38.7-1.4c-5.4,0.4-10.8,1.5-16.1,2.3c-2.3,0.3-2.8-0.1-3-2.3c-0.1-1.3-0.1-2.7-0.1-4
		c0-84.6,0-169.2,0-253.8c0-5.7,0-5.2-5.3-5.2c-20.5,0-41.1,0-61.6,0c-0.4,0-0.9,0-1.3,0c-2.2,0.1-2.5,0.3-2.6,2.5
		c-0.1,1.3,0,2.7,0,4c0,96.7,0,193.4,0.1,290.1c0,2.6-0.5,4.7-2.8,6.3c-1.4,0.9-2.4,2.3-3.7,3.4c-16,14.2-28.8,31.1-39.9,49.2
		C12.4,367,7.8,375.9,3,384.7c-1.1,2.1-2,4.3-3,6.5c0.3,0.2,0.6,0.4,0.8,0.6c0.3-0.6,0.6-1.2,1-1.7c12.6-14.6,25.8-28.7,40.4-41.5
		c5.6-4.9,11.4-9.5,17.2-14.2c1.1-0.9,2.3-2.2,4.6-1.7c0,49.9,0,99.8,0,149.7c0,50,0,100.1,0,150.6c23.8,0,47,0,70.3,0
		c1-2.6,0.6-5,0.6-7.4c0-105.2,0-210.5,0-315.7c0-1.9,0-3.8,0-5.7c0.1-3,0.8-3.9,3.7-3.9c5.4-0.1,10.9-0.4,16.3,0.1
		c13.8,1.2,27,4.9,39.5,11c2.5,1.2,3.3,2.7,3.4,5.4c0,13.2,0.3,26.4,0.4,39.6c0.3,39.2,0.5,78.4,0.7,117.5
		c0.1,26.6,0.1,53.3,0.3,79.9c0.1,24.2,0.3,48.4,0.4,72.6c0,1.5,0.3,3,0.4,4.5c77.6,0,154.8,0,232,0c-1-1.1-2.1-1.7-3.3-2.3
		c-6.7-3.5-13.5-6.8-20-10.5c-18.2-10.3-35.2-22.4-50.9-36.2C338.7,565,322,546,308,524.6c-13.5-20.5-24.3-42.3-32.4-65.4
		c-3.8-10.9-6.8-22-9.8-33.2c-3.6-13.6-6-27.5-7.6-41.5c-0.7-6.2-1.2-12.4-1.8-18.5c-0.1-0.8,0.2-1.6,0.4-3.2
		c1.4,1.2,2.2,1.9,2.9,2.7c3.2,3.9,6.4,7.9,9.6,11.9c13.1,16.7,24.9,34.3,35.8,52.5c12.4,20.8,25.4,41.1,40,60.4
		c9.1,12.1,18.7,23.7,28.9,34.8c17.3,18.9,36.2,36,57.2,50.6c10.5,7.3,21.4,13.8,32.8,19.7c10.4,5.4,21.1,9.9,32.2,13.5
		c11.8,3.9,23.9,6.7,36.2,8.7c9.1,1.4,18.3,1.9,27.5,2.2c6.1,0.2,12.2-0.4,18.3-0.5c12.7-0.2,25.2-2.1,37.6-4.5
		c15.8-3.1,31.2-7.7,46-14.1c22.6-9.7,43.2-22.4,62.1-38.3c18-15.2,33.7-32.5,47.6-51.4c10.4-14.1,19.3-29.2,27.4-44.8
		c6.6-12.6,12.1-25.7,17-39c0.6-1.6,1-3.2,1.5-4.8C816.6,422.5,816.3,422.8,816.1,423.2z"/>
	<path d="M418.8,122.1c-0.1,8.2-0.3,16.5,0.4,24.6c1,12.7,3.1,25.3,6.5,37.7c1.7,6.3,3.6,12.5,5.4,18.8c0.3-0.1,0.5-0.1,0.8-0.2
		c0-0.4,0-0.9,0-1.3c-0.9-14.9-1.9-29.9-2.7-44.8c-0.8-15.6-0.7-31.3,2-46.8c1.6-9.2,4.1-18.2,8.5-26.5c5.3-10.1,12.9-18,22.9-23.4
		c10.4-5.6,21.7-7.8,33.3-8.3c14.8-0.7,28.9,2.7,42.3,8.7c16.1,7.2,30,17.6,42.3,30.2c19,19.5,33.4,42.2,44.7,66.9
		c7.1,15.5,13.3,31.5,17.8,48c3,10.9,5.9,21.9,8.3,32.9c2.9,13.1,5.1,26.3,6.5,39.7c1.1,11.3,2.8,22.5,3.4,33.8
		c1.1,19.7,1.6,39.5-0.4,59.2c-1.4,13.6-3.2,27.1-5.8,40.5c-2.4,12.5-5.5,24.9-9.3,37.1c-6.5,21-15.1,41-26.6,59.7
		c-0.5,0.8-0.9,1.6-1.4,2.4c4-3.8,7.5-8,11-12.2c17-20.4,30.7-42.9,42-66.9c8.7-18.5,15.4-37.8,20.5-57.6
		c2.9-11.3,5.1-22.7,6.9-34.2c2.5-15.8,3.8-31.7,4.4-47.7c0.7-20.3-0.2-40.6-2.4-60.8c-1.6-14.8-3.9-29.5-7.1-44
		c-2.1-9.6-4.6-19.2-7.2-28.7c-3.4-12.7-7.7-25-12.7-37.1c-4.5-11.1-9.4-22-15.2-32.6c-10.1-18.7-22-36.2-37.1-51.4
		c-12.1-12.2-25.5-22.3-41.3-29.1c-10.8-4.7-22-7.7-33.8-8.3c-19.5-1-38.5,1.7-56.7,9.2c-15.6,6.4-28.9,15.9-39.9,28.6
		c-11,12.7-18.5,27.3-23.6,43.2C421.3,94.5,419.1,108.1,418.8,122.1z"/>
</g>
</svg>
